<?xml version="1.0" encoding="UTF-8"?>
<svg xmlns="http://www.w3.org/2000/svg" xmlns:xlink="http://www.w3.org/1999/xlink" width="32pt" height="32pt" viewBox="0 0 32 32" version="1.1">
<g id="surface1">
<path style=" stroke:none;fill-rule:nonzero;fill:rgb(33.333333%,37.647059%,50.196078%);fill-opacity:1;" d="M 4.414062 13.515625 C 4.273438 13.515625 4.132812 13.464844 4.023438 13.355469 C 3.808594 13.140625 3.808594 12.792969 4.023438 12.574219 L 13.402344 3.195312 C 13.617188 2.980469 13.96875 2.980469 14.183594 3.195312 C 14.398438 3.410156 14.398438 3.761719 14.183594 3.976562 L 4.804688 13.355469 C 4.695312 13.464844 4.554688 13.515625 4.414062 13.515625 Z M 4.414062 13.515625 "/>
<path style=" stroke:none;fill-rule:nonzero;fill:rgb(33.333333%,37.647059%,50.196078%);fill-opacity:1;" d="M 27.585938 13.515625 C 27.445312 13.515625 27.304688 13.464844 27.195312 13.355469 L 17.816406 3.976562 C 17.601562 3.761719 17.601562 3.410156 17.816406 3.195312 C 18.03125 2.980469 18.382812 2.980469 18.597656 3.195312 L 27.976562 12.574219 C 28.191406 12.792969 28.191406 13.140625 27.976562 13.355469 C 27.867188 13.464844 27.726562 13.515625 27.585938 13.515625 Z M 27.585938 13.515625 "/>
<path style=" stroke:none;fill-rule:nonzero;fill:rgb(97.647059%,91.764706%,69.019608%);fill-opacity:1;" d="M 18.207031 3.585938 C 18.207031 4.804688 17.21875 5.792969 16 5.792969 C 14.78125 5.792969 13.792969 4.804688 13.792969 3.585938 C 13.792969 2.367188 14.78125 1.378906 16 1.378906 C 17.21875 1.378906 18.207031 2.367188 18.207031 3.585938 Z M 18.207031 3.585938 "/>
<path style=" stroke:none;fill-rule:nonzero;fill:rgb(90.196078%,29.803922%,23.529412%);fill-opacity:1;" d="M 0 12.964844 L 32 12.964844 L 32 30.621094 L 0 30.621094 Z M 0 12.964844 "/>
<path style=" stroke:none;fill-rule:nonzero;fill:rgb(100%,100%,100%);fill-opacity:1;" d="M 6.070312 27.863281 C 4.546875 27.863281 3.308594 26.625 3.308594 25.101562 L 3.308594 18.484375 C 3.308594 16.960938 4.546875 15.722656 6.070312 15.722656 C 7.589844 15.722656 8.828125 16.960938 8.828125 18.484375 L 8.828125 25.101562 C 8.828125 26.625 7.589844 27.863281 6.070312 27.863281 Z M 6.070312 16.828125 C 5.15625 16.828125 4.414062 17.570312 4.414062 18.484375 L 4.414062 25.101562 C 4.414062 26.015625 5.15625 26.757812 6.070312 26.757812 C 6.980469 26.757812 7.722656 26.015625 7.722656 25.101562 L 7.722656 18.484375 C 7.722656 17.570312 6.980469 16.828125 6.070312 16.828125 Z M 6.070312 16.828125 "/>
<path style=" stroke:none;fill-rule:nonzero;fill:rgb(100%,100%,100%);fill-opacity:1;" d="M 12.691406 24 C 11.167969 24 9.929688 22.761719 9.929688 21.242188 L 9.929688 18.484375 C 9.929688 16.960938 11.167969 15.722656 12.691406 15.722656 C 14.210938 15.722656 15.449219 16.960938 15.449219 18.484375 L 15.449219 21.242188 C 15.449219 22.761719 14.210938 24 12.691406 24 Z M 12.691406 16.828125 C 11.777344 16.828125 11.035156 17.570312 11.035156 18.484375 L 11.035156 21.242188 C 11.035156 22.152344 11.777344 22.898438 12.691406 22.898438 C 13.601562 22.898438 14.34375 22.152344 14.34375 21.242188 L 14.34375 18.484375 C 14.34375 17.570312 13.601562 16.828125 12.691406 16.828125 Z M 12.691406 16.828125 "/>
<path style=" stroke:none;fill-rule:nonzero;fill:rgb(100%,100%,100%);fill-opacity:1;" d="M 17.101562 27.863281 C 16.800781 27.863281 16.550781 27.617188 16.550781 27.308594 L 16.550781 16.277344 C 16.550781 15.972656 16.800781 15.722656 17.101562 15.722656 C 17.40625 15.722656 17.65625 15.972656 17.65625 16.277344 L 17.65625 27.308594 C 17.65625 27.617188 17.40625 27.863281 17.101562 27.863281 Z M 17.101562 27.863281 "/>
<path style=" stroke:none;fill-rule:nonzero;fill:rgb(100%,100%,100%);fill-opacity:1;" d="M 28.136719 27.863281 C 27.832031 27.863281 27.585938 27.617188 27.585938 27.308594 L 27.585938 16.277344 C 27.585938 15.972656 27.832031 15.722656 28.136719 15.722656 C 28.441406 15.722656 28.691406 15.972656 28.691406 16.277344 L 28.691406 27.308594 C 28.691406 27.617188 28.441406 27.863281 28.136719 27.863281 Z M 28.136719 27.863281 "/>
<path style=" stroke:none;fill-rule:nonzero;fill:rgb(100%,100%,100%);fill-opacity:1;" d="M 23.722656 27.863281 C 23.417969 27.863281 23.171875 27.617188 23.171875 27.308594 L 23.171875 16.277344 C 23.171875 15.972656 23.417969 15.722656 23.722656 15.722656 C 24.027344 15.722656 24.277344 15.972656 24.277344 16.277344 L 24.277344 27.308594 C 24.277344 27.617188 24.027344 27.863281 23.722656 27.863281 Z M 23.722656 27.863281 "/>
<path style=" stroke:none;fill-rule:nonzero;fill:rgb(100%,100%,100%);fill-opacity:1;" d="M 10.484375 27.863281 C 10.179688 27.863281 9.929688 27.617188 9.929688 27.308594 L 9.929688 21.242188 C 9.929688 20.9375 10.179688 20.691406 10.484375 20.691406 C 10.789062 20.691406 11.035156 20.9375 11.035156 21.242188 L 11.035156 27.308594 C 11.035156 27.617188 10.789062 27.863281 10.484375 27.863281 Z M 10.484375 27.863281 "/>
<path style=" stroke:none;fill-rule:nonzero;fill:rgb(100%,100%,100%);fill-opacity:1;" d="M 21.515625 22.34375 L 17.101562 22.34375 C 16.800781 22.34375 16.550781 22.097656 16.550781 21.792969 C 16.550781 21.488281 16.800781 21.242188 17.101562 21.242188 L 21.515625 21.242188 C 21.820312 21.242188 22.070312 21.488281 22.070312 21.792969 C 22.070312 22.097656 21.820312 22.34375 21.515625 22.34375 Z M 21.515625 22.34375 "/>
<path style=" stroke:none;fill-rule:nonzero;fill:rgb(100%,100%,100%);fill-opacity:1;" d="M 21.515625 16.828125 L 17.101562 16.828125 C 16.800781 16.828125 16.550781 16.582031 16.550781 16.277344 C 16.550781 15.972656 16.800781 15.722656 17.101562 15.722656 L 21.515625 15.722656 C 21.820312 15.722656 22.070312 15.972656 22.070312 16.277344 C 22.070312 16.582031 21.820312 16.828125 21.515625 16.828125 Z M 21.515625 16.828125 "/>
<path style=" stroke:none;fill-rule:nonzero;fill:rgb(100%,100%,100%);fill-opacity:1;" d="M 21.515625 27.863281 L 17.101562 27.863281 C 16.800781 27.863281 16.550781 27.617188 16.550781 27.308594 C 16.550781 27.003906 16.800781 26.757812 17.101562 26.757812 L 21.515625 26.757812 C 21.820312 26.757812 22.070312 27.003906 22.070312 27.308594 C 22.070312 27.617188 21.820312 27.863281 21.515625 27.863281 Z M 21.515625 27.863281 "/>
<path style=" stroke:none;fill-rule:nonzero;fill:rgb(100%,100%,100%);fill-opacity:1;" d="M 28.136719 27.863281 C 27.917969 27.863281 27.710938 27.730469 27.625 27.515625 L 23.210938 16.480469 C 23.097656 16.199219 23.234375 15.875 23.519531 15.761719 C 23.804688 15.648438 24.121094 15.789062 24.234375 16.070312 L 28.648438 27.105469 C 28.761719 27.390625 28.625 27.710938 28.34375 27.824219 C 28.277344 27.851562 28.207031 27.863281 28.136719 27.863281 Z M 28.136719 27.863281 "/>
</g>
</svg>
